<?xml version="1.0" encoding="UTF-8" standalone="no"?>
<!DOCTYPE svg PUBLIC "-//W3C//DTD SVG 1.1//EN"
"http://www.w3.org/Graphics/SVG/1.1/DTD/svg11.dtd">


<!-- Page 1 -->
<svg x="0" y="0" width="303" height="376" viewBox="0 0 303 376" version="1.1" xmlns="http://www.w3.org/2000/svg" xmlns:xlink="http://www.w3.org/1999/xlink"
style="display: block;margin-left: auto;margin-right: auto;">
<defs>
<clipPath id="c_1"><path d="M0,0H303V376H0Z"/></clipPath>
<style type="text/css"><![CDATA[
text { white-space: pre; }
path, image { pointer-events: none; }
text::-moz-selection {
	color: transparent;
	background: rgba(0, 106, 173, 0.4);
}
text::selection {
	color: transparent;
	background: rgba(0, 106, 173, 0.4);
}

.s1{
font-size: 15.22px;
font-family: CMR10_7;
fill: TRANSPARENT;
}
.s2{
font-size: 12.18px;
font-family: CMR8_8;
fill: TRANSPARENT;
}
.s3{
font-size: 15.22px;
font-family: CMMI10_9;
fill: TRANSPARENT;
}
.s4{
font-size: 10.65px;
font-family: CMR7_a;
fill: TRANSPARENT;
}
.s5{
font-size: 10.65px;
font-family: CMMI7_b;
fill: TRANSPARENT;
}
.s6{
font-size: 10.65px;
font-family: CMSY7_c;
fill: TRANSPARENT;
}
.s7{
font-size: 15.22px;
font-family: CMSY10_d;
fill: TRANSPARENT;
}
.s8{
font-size: 7.61px;
font-family: CMR5_e;
fill: TRANSPARENT;
}
.s9{
font-size: 7.61px;
font-family: CMMI5_f;
fill: TRANSPARENT;
}
.sa{
font-size: 7.61px;
font-family: CMSY5_g;
fill: TRANSPARENT;
}

.g0{
fill: none;
stroke: #000000;
stroke-width: 0.608;
stroke-linecap: butt;
stroke-linejoin: miter;
}
.g1{
fill: none;
stroke: #4DB34D;
stroke-width: 0.608;
stroke-linecap: butt;
stroke-linejoin: miter;
stroke-dasharray: 5,5;
}
.g2{
fill: none;
stroke: #1A1AE6;
stroke-width: 0.608;
stroke-linecap: butt;
stroke-linejoin: miter;
stroke-dasharray: 5,5;
}
.g3{
fill: none;
stroke: #FF9900;
stroke-width: 0.608;
stroke-linecap: butt;
stroke-linejoin: miter;
stroke-dasharray: 5,5;
}
.g4{
fill: none;
stroke: #FF3300;
stroke-width: 0.608;
stroke-linecap: butt;
stroke-linejoin: miter;
stroke-dasharray: 5,5;
}
.g5{
stroke: #000000;
stroke-width: 0.608;
stroke-linecap: butt;
stroke-linejoin: miter;
}

]]></style>

</defs>
<g clip-path="url(#c_1)">
<path d="M0,0
L0,376
L303,376
L303,0 Z " 
fill="#FFFFFF" stroke="none"/>
<path d="M43.6,375.8H260.1V29.4H43.6V375.8" class="g0"/>
<g fill="#000000" >
<use xlink:href="#f0_5" transform="matrix(10,0,0,10,113.7,15.6)" />
<use xlink:href="#f0_7" transform="matrix(10,0,0,10,125.3,15.6)" />
<use xlink:href="#f0_9" transform="matrix(10,0,0,10,132,15.6)" />
<use xlink:href="#f0_b" transform="matrix(10,0,0,10,140.5,15.6)" />
<use xlink:href="#f0_7" transform="matrix(10,0,0,10,146.5,15.6)" />
<use xlink:href="#f0_8" transform="matrix(10,0,0,10,158.3,15.6)" />
<use xlink:href="#f0_6" transform="matrix(10,0,0,10,162.6,15.6)" />
<use xlink:href="#f0_c" transform="matrix(10,0,0,10,169.8,15.6)" />
<use xlink:href="#f0_7" transform="matrix(10,0,0,10,177.4,15.6)" />
<use xlink:href="#f0_a" transform="matrix(10,0,0,10,184.1,15.6)" />
</g>
<g fill="#4DB34D" >
<use xlink:href="#f1_3" transform="matrix(8,0,0,8,63,54.1)" />
</g>
<text x="113" y="15" dx="0,0,0,0,0,0,1.3,0,-.4,-.4,0" class="s1">Dense layer</text>
<g fill="#4DB34D" >
<use xlink:href="#f1_c" transform="matrix(8,0,0,8,70.4,54.1)" />
<use xlink:href="#f1_e" transform="matrix(8,0,0,8,76.9,54.1)" />
<use xlink:href="#f1_h" transform="matrix(8,0,0,8,81.9,54.1)" />
<use xlink:href="#f1_5" transform="matrix(8,0,0,8,90.9,54.1)" />
<use xlink:href="#f1_e" transform="matrix(8,0,0,8,97.4,54.1)" />
<use xlink:href="#f1_7" transform="matrix(8,0,0,8,102.4,54.1)" />
<use xlink:href="#f1_d" transform="matrix(8,0,0,8,113.9,54.1)" />
<use xlink:href="#f1_5" transform="matrix(8,0,0,8,121.1,54.1)" />
<use xlink:href="#f1_f" transform="matrix(8,0,0,8,127.6,54.1)" />
<use xlink:href="#f1_f" transform="matrix(8,0,0,8,132.7,54.1)" />
</g>
<text x="63" y="54" dx="0,-1.1,0,0,-.4,0,0,0,1.3,0,0,0" class="s2">Forward pass</text>
<path d="M52.3,124.4V42.6c0,-2.5,2,-4.6,4.5,-4.6H246.9c2.5,0,4.6,2.1,4.6,4.6v81.8c0,2.5,-2.1,4.6,-4.6,4.6H56.8c-2.5,0,-4.5,-2.1,-4.5,-4.6Z" class="g1"/>
<g fill="#000000" >
<use xlink:href="#f2_5" transform="matrix(10,0,0,10,85.9,86.3)" />
<use xlink:href="#f3_2" transform="matrix(7,0,0,7,93.6,80.8)" />
</g>
<text x="85" y="86" class="s3">z</text>
<g fill="#000000" >
<use xlink:href="#f4_4" transform="matrix(7,0,0,7,97.1,80.8)" />
</g>
<text x="93" y="80" class="s4">[</text>
<g fill="#000000" >
<use xlink:href="#f3_3" transform="matrix(7,0,0,7,101,80.8)" />
</g>
<text x="97" y="80" class="s5">l</text>
<g fill="#000000" >
<use xlink:href="#f0_4" transform="matrix(10,0,0,10,109.4,86.3)" />
</g>
<text x="100" y="80" class="s4">]</text>
<g fill="#000000" >
<use xlink:href="#f2_1" transform="matrix(10,0,0,10,125.5,86.3)" />
</g>
<text x="109" y="86" class="s1">=</text>
<g fill="#000000" >
<use xlink:href="#f3_2" transform="matrix(7,0,0,7,142,80.8)" />
</g>
<text x="125" y="86" class="s3">W</text>
<g fill="#000000" >
<use xlink:href="#f4_4" transform="matrix(7,0,0,7,145.4,80.8)" />
</g>
<text x="141" y="80" class="s4">[</text>
<g fill="#000000" >
<use xlink:href="#f3_3" transform="matrix(7,0,0,7,149.3,80.8)" />
</g>
<text x="145" y="80" class="s5">l</text>
<g fill="#000000" >
<use xlink:href="#f2_4" transform="matrix(10,0,0,10,153.5,86.3)" />
</g>
<text x="149" y="80" class="s4">]</text>
<g fill="#000000" >
<use xlink:href="#f4_4" transform="matrix(7,0,0,7,160.9,88.6)" />
</g>
<text x="153" y="86" class="s3">o</text>
<g fill="#000000" >
<use xlink:href="#f5_1" transform="matrix(7,0,0,7,164.8,88.6)" />
</g>
<text x="160" y="88" class="s5">l</text>
<g fill="#000000" >
<use xlink:href="#f3_1" transform="matrix(7,0,0,7,174.3,88.6)" />
</g>
<text x="164" y="88" class="s6">-</text>
<g fill="#000000" >
<use xlink:href="#f0_3" transform="matrix(10,0,0,10,184.6,86.3)" />
</g>
<text x="174" y="88" class="s4">1</text>
<g fill="#000000" >
<use xlink:href="#f2_2" transform="matrix(10,0,0,10,199.8,86.3)" />
</g>
<text x="184" y="86" class="s1">+</text>
<g fill="#000000" >
<use xlink:href="#f3_2" transform="matrix(7,0,0,7,206.3,80.8)" />
</g>
<text x="199" y="86" class="s3">b</text>
<g fill="#000000" >
<use xlink:href="#f4_4" transform="matrix(7,0,0,7,209.8,80.8)" />
</g>
<text x="206" y="80" class="s4">[</text>
<g fill="#000000" >
<use xlink:href="#f3_3" transform="matrix(7,0,0,7,213.7,80.8)" />
</g>
<text x="209" y="80" class="s5">l</text>
<g fill="#000000" >
<use xlink:href="#f2_4" transform="matrix(10,0,0,10,116.2,112.2)" />
</g>
<text x="213" y="80" class="s4">]</text>
<g fill="#000000" >
<use xlink:href="#f4_4" transform="matrix(7,0,0,7,123.6,114.4)" />
</g>
<text x="116" y="112" class="s3">o</text>
<g fill="#000000" >
<use xlink:href="#f0_4" transform="matrix(10,0,0,10,132.5,112.2)" />
</g>
<text x="123" y="114" class="s5">l</text>
<g fill="#000000" >
<use xlink:href="#f2_3" transform="matrix(10,0,0,10,148.6,112.2)" />
</g>
<text x="132" y="112" class="s1">=</text>
<g fill="#000000" >
<use xlink:href="#f0_1" transform="matrix(10,0,0,10,156.4,112.2)" />
</g>
<text x="148" y="112" class="s3">g</text>
<g fill="#000000" >
<use xlink:href="#f2_5" transform="matrix(10,0,0,10,162.3,112.2)" />
</g>
<text x="156" y="112" class="s1">(</text>
<g fill="#000000" >
<use xlink:href="#f3_2" transform="matrix(7,0,0,7,170,106.6)" />
</g>
<text x="162" y="112" class="s3">z</text>
<g fill="#000000" >
<use xlink:href="#f4_4" transform="matrix(7,0,0,7,173.5,106.6)" />
</g>
<text x="170" y="106" class="s4">[</text>
<g fill="#000000" >
<use xlink:href="#f3_3" transform="matrix(7,0,0,7,177.4,106.6)" />
</g>
<text x="173" y="106" class="s5">l</text>
<g fill="#000000" >
<use xlink:href="#f0_2" transform="matrix(10,0,0,10,181.6,112.2)" />
</g>
<text x="177" y="106" class="s4">]</text>
<g fill="#1A1AE6" >
<use xlink:href="#f1_1" transform="matrix(8,0,0,8,63,270.6)" />
</g>
<text x="181" y="112" class="s1">)</text>
<g fill="#1A1AE6" >
<use xlink:href="#f1_5" transform="matrix(8,0,0,8,72.2,270.6)" />
<use xlink:href="#f1_6" transform="matrix(8,0,0,8,78.7,270.6)" />
<use xlink:href="#f1_a" transform="matrix(8,0,0,8,84.1,270.6)" />
<use xlink:href="#f1_h" transform="matrix(8,0,0,8,90.9,270.6)" />
<use xlink:href="#f1_5" transform="matrix(8,0,0,8,99.9,270.6)" />
<use xlink:href="#f1_e" transform="matrix(8,0,0,8,106.3,270.6)" />
<use xlink:href="#f1_7" transform="matrix(8,0,0,8,111.4,270.6)" />
<use xlink:href="#f1_d" transform="matrix(8,0,0,8,122.9,270.6)" />
<use xlink:href="#f1_5" transform="matrix(8,0,0,8,130.1,270.6)" />
<use xlink:href="#f1_f" transform="matrix(8,0,0,8,136.5,270.6)" />
<use xlink:href="#f1_f" transform="matrix(8,0,0,8,141.6,270.6)" />
</g>
<text x="63" y="270" dx="0,0,0,-.4,0,-.4,0,0,0,1.3,0,0,0" class="s2">Backward pass</text>
<path d="M52.3,362.6V259.1c0,-2.5,2,-4.5,4.5,-4.5H246.9c2.5,0,4.6,2,4.6,4.5V362.6c0,2.5,-2.1,4.6,-4.6,4.6H56.8c-2.5,0,-4.5,-2.1,-4.5,-4.6Z" class="g2"/>
<g fill="#000000" >
<use xlink:href="#f6_3" transform="matrix(10,0,0,10,64.1,293.6)" />
<use xlink:href="#f4_2" transform="matrix(7,0,0,7,76.8,297.1)" />
</g>
<text x="64" y="293" class="s7">∇</text>
<g fill="#000000" >
<use xlink:href="#f7_2" transform="matrix(5,0,0,5,89.9,294)" />
</g>
<text x="76" y="297" class="s5">W</text>
<g fill="#000000" >
<use xlink:href="#f8_1" transform="matrix(5,0,0,5,93,294)" />
</g>
<text x="89" y="294" class="s8">[</text>
<g fill="#000000" >
<use xlink:href="#f7_3" transform="matrix(5,0,0,5,96.6,294)" />
</g>
<text x="92" y="294" class="s9">l</text>
<g fill="#000000" >
<use xlink:href="#f6_2" transform="matrix(10,0,0,10,101.2,293.6)" />
</g>
<text x="96" y="294" class="s8">]</text>
<g fill="#000000" >
<use xlink:href="#f0_4" transform="matrix(10,0,0,10,115.9,293.6)" />
</g>
<text x="101" y="293" class="s7">L</text>
<g fill="#000000" >
<use xlink:href="#f0_1" transform="matrix(10,0,0,10,132,293.6)" />
<use xlink:href="#f2_4" transform="matrix(10,0,0,10,137.9,293.6)" />
</g>
<text x="115" y="293" dx="0,4.2" class="s1">=(</text>
<g fill="#000000" >
<use xlink:href="#f9_2" transform="matrix(5,0,0,5,145.3,283.5)" />
</g>
<text x="137" y="293" class="s3">o</text>
<g fill="#000000" >
<use xlink:href="#f4_4" transform="matrix(7,0,0,7,145.3,297.9)" />
</g>
<text x="145" y="283" class="sa">0</text>
<g fill="#000000" >
<use xlink:href="#f6_1" transform="matrix(10,0,0,10,153.6,293.6)" />
<use xlink:href="#f2_3" transform="matrix(10,0,0,10,168.8,293.6)" />
</g>
<text x="145" y="297" class="s5">l</text>
<g fill="#000000" >
<use xlink:href="#f5_2" transform="matrix(7,0,0,7,176.6,288.1)" />
</g>
<text x="168" y="293" class="s3">g</text>
<g fill="#000000" >
<use xlink:href="#f0_1" transform="matrix(10,0,0,10,180.9,293.6)" />
</g>
<text x="176" y="288" class="s6">0</text>
<g fill="#000000" >
<use xlink:href="#f2_5" transform="matrix(10,0,0,10,186.8,293.6)" />
</g>
<text x="180" y="293" class="s1">(</text>
<g fill="#000000" >
<use xlink:href="#f3_2" transform="matrix(7,0,0,7,194.5,288.1)" />
</g>
<text x="186" y="293" class="s3">z</text>
<g fill="#000000" >
<use xlink:href="#f4_4" transform="matrix(7,0,0,7,198,288.1)" />
</g>
<text x="194" y="288" class="s4">[</text>
<g fill="#000000" >
<use xlink:href="#f3_3" transform="matrix(7,0,0,7,201.9,288.1)" />
</g>
<text x="197" y="288" class="s5">l</text>
<g fill="#000000" >
<use xlink:href="#f0_2" transform="matrix(10,0,0,10,206.1,293.6)" />
</g>
<text x="201" y="288" class="s4">]</text>
<g fill="#000000" >
<use xlink:href="#f2_4" transform="matrix(10,0,0,10,212,293.6)" />
</g>
<text x="206" y="293" class="s1">)</text>
<g fill="#000000" >
<use xlink:href="#f4_1" transform="matrix(7,0,0,7,219.4,288.1)" />
</g>
<text x="212" y="293" class="s3">o</text>
<g fill="#000000" >
<use xlink:href="#f4_4" transform="matrix(7,0,0,7,219.4,297.9)" />
</g>
<text x="219" y="288" class="s5">T</text>
<g fill="#000000" >
<use xlink:href="#f5_1" transform="matrix(7,0,0,7,223.3,297.9)" />
</g>
<text x="219" y="297" class="s5">l</text>
<g fill="#000000" >
<use xlink:href="#f3_1" transform="matrix(7,0,0,7,232.8,297.9)" />
</g>
<text x="223" y="297" class="s6">-</text>
<g fill="#000000" >
<use xlink:href="#f6_3" transform="matrix(10,0,0,10,81.8,324.5)" />
</g>
<text x="232" y="297" class="s4">1</text>
<g fill="#000000" >
<use xlink:href="#f4_3" transform="matrix(7,0,0,7,94.5,328)" />
</g>
<text x="81" y="324" class="s7">∇</text>
<g fill="#000000" >
<use xlink:href="#f7_2" transform="matrix(5,0,0,5,99.8,325)" />
</g>
<text x="94" y="328" class="s5">b</text>
<g fill="#000000" >
<use xlink:href="#f8_1" transform="matrix(5,0,0,5,102.9,325)" />
</g>
<text x="99" y="324" class="s8">[</text>
<g fill="#000000" >
<use xlink:href="#f7_3" transform="matrix(5,0,0,5,106.6,325)" />
</g>
<text x="102" y="324" class="s9">l</text>
<g fill="#000000" >
<use xlink:href="#f6_2" transform="matrix(10,0,0,10,111.2,324.5)" />
</g>
<text x="106" y="324" class="s8">]</text>
<g fill="#000000" >
<use xlink:href="#f0_4" transform="matrix(10,0,0,10,125.9,324.5)" />
</g>
<text x="111" y="324" class="s7">L</text>
<g fill="#000000" >
<use xlink:href="#f0_1" transform="matrix(10,0,0,10,141.9,324.5)" />
<use xlink:href="#f2_4" transform="matrix(10,0,0,10,147.9,324.5)" />
</g>
<text x="125" y="324" dx="0,4.2" class="s1">=(</text>
<g fill="#000000" >
<use xlink:href="#f9_2" transform="matrix(5,0,0,5,155.2,314.4)" />
</g>
<text x="147" y="324" class="s3">o</text>
<g fill="#000000" >
<use xlink:href="#f4_4" transform="matrix(7,0,0,7,155.2,328.8)" />
</g>
<text x="155" y="314" class="sa">0</text>
<g fill="#000000" >
<use xlink:href="#f6_1" transform="matrix(10,0,0,10,163.5,324.5)" />
<use xlink:href="#f2_3" transform="matrix(10,0,0,10,178.7,324.5)" />
</g>
<text x="155" y="328" class="s5">l</text>
<g fill="#000000" >
<use xlink:href="#f5_2" transform="matrix(7,0,0,7,186.5,319)" />
</g>
<text x="178" y="324" class="s3">g</text>
<g fill="#000000" >
<use xlink:href="#f0_1" transform="matrix(10,0,0,10,190.8,324.5)" />
</g>
<text x="186" y="319" class="s6">0</text>
<g fill="#000000" >
<use xlink:href="#f2_5" transform="matrix(10,0,0,10,196.7,324.5)" />
</g>
<text x="190" y="324" class="s1">(</text>
<g fill="#000000" >
<use xlink:href="#f3_2" transform="matrix(7,0,0,7,204.5,319)" />
</g>
<text x="196" y="324" class="s3">z</text>
<g fill="#000000" >
<use xlink:href="#f4_4" transform="matrix(7,0,0,7,207.9,319)" />
</g>
<text x="204" y="319" class="s4">[</text>
<g fill="#000000" >
<use xlink:href="#f3_3" transform="matrix(7,0,0,7,211.8,319)" />
</g>
<text x="207" y="319" class="s5">l</text>
<g fill="#000000" >
<use xlink:href="#f0_2" transform="matrix(10,0,0,10,216,324.5)" />
</g>
<text x="211" y="319" class="s4">]</text>
<g fill="#000000" >
<use xlink:href="#f6_3" transform="matrix(10,0,0,10,59,355.8)" />
</g>
<text x="216" y="324" class="s1">)</text>
<g fill="#000000" >
<use xlink:href="#f4_5" transform="matrix(7,0,0,7,71.7,358)" />
</g>
<text x="59" y="355" class="s7">∇</text>
<g fill="#000000" >
<use xlink:href="#f8_1" transform="matrix(5,0,0,5,77.7,359.7)" />
</g>
<text x="71" y="358" class="s5">o</text>
<g fill="#000000" >
<use xlink:href="#f9_1" transform="matrix(5,0,0,5,81.4,359.7)" />
</g>
<text x="77" y="359" class="s9">l</text>
<g fill="#000000" >
<use xlink:href="#f7_1" transform="matrix(5,0,0,5,89.6,359.7)" />
</g>
<text x="81" y="359" class="sa">-</text>
<g fill="#000000" >
<use xlink:href="#f6_2" transform="matrix(10,0,0,10,96.3,355.8)" />
</g>
<text x="89" y="359" class="s8">1</text>
<g fill="#000000" >
<use xlink:href="#f0_4" transform="matrix(10,0,0,10,111,355.8)" />
</g>
<text x="96" y="355" class="s7">L</text>
<g fill="#000000" >
<use xlink:href="#f2_1" transform="matrix(10,0,0,10,127.1,355.8)" />
</g>
<text x="111" y="355" class="s1">=</text>
<g fill="#000000" >
<use xlink:href="#f3_2" transform="matrix(7,0,0,7,143.6,350.2)" />
</g>
<text x="127" y="355" class="s3">W</text>
<g fill="#000000" >
<use xlink:href="#f4_4" transform="matrix(7,0,0,7,147,350.2)" />
</g>
<text x="143" y="350" class="s4">[</text>
<g fill="#000000" >
<use xlink:href="#f3_3" transform="matrix(7,0,0,7,150.9,350.2)" />
</g>
<text x="147" y="350" class="s5">l</text>
<g fill="#000000" >
<use xlink:href="#f4_1" transform="matrix(7,0,0,7,155.2,346)" />
</g>
<text x="150" y="350" class="s4">]</text>
<g fill="#000000" >
<use xlink:href="#f0_1" transform="matrix(10,0,0,10,164.7,355.8)" />
</g>
<text x="155" y="346" class="s5">T</text>
<g fill="#000000" >
<use xlink:href="#f2_4" transform="matrix(10,0,0,10,170.7,355.8)" />
</g>
<text x="164" y="355" class="s1">(</text>
<g fill="#000000" >
<use xlink:href="#f9_2" transform="matrix(5,0,0,5,178,345.6)" />
</g>
<text x="170" y="355" class="s3">o</text>
<g fill="#000000" >
<use xlink:href="#f4_4" transform="matrix(7,0,0,7,178,360.1)" />
</g>
<text x="178" y="345" class="sa">0</text>
<g fill="#000000" >
<use xlink:href="#f6_1" transform="matrix(10,0,0,10,186.3,355.8)" />
<use xlink:href="#f2_3" transform="matrix(10,0,0,10,201.5,355.8)" />
</g>
<text x="178" y="360" class="s5">l</text>
<g fill="#000000" >
<use xlink:href="#f5_2" transform="matrix(7,0,0,7,209.3,350.2)" />
</g>
<text x="201" y="355" class="s3">g</text>
<g fill="#000000" >
<use xlink:href="#f0_1" transform="matrix(10,0,0,10,213.6,355.8)" />
</g>
<text x="209" y="350" class="s6">0</text>
<g fill="#000000" >
<use xlink:href="#f2_5" transform="matrix(10,0,0,10,219.5,355.8)" />
</g>
<text x="213" y="355" class="s1">(</text>
<g fill="#000000" >
<use xlink:href="#f3_2" transform="matrix(7,0,0,7,227.3,350.2)" />
</g>
<text x="219" y="355" class="s3">z</text>
<g fill="#000000" >
<use xlink:href="#f4_4" transform="matrix(7,0,0,7,230.7,350.2)" />
</g>
<text x="227" y="350" class="s4">[</text>
<g fill="#000000" >
<use xlink:href="#f3_3" transform="matrix(7,0,0,7,234.6,350.2)" />
</g>
<text x="230" y="350" class="s5">l</text>
<g fill="#000000" >
<use xlink:href="#f0_2" transform="matrix(10,0,0,10,238.8,355.8)" />
</g>
<text x="234" y="350" class="s4">]</text>
<g fill="#FF9900" >
<use xlink:href="#f1_4" transform="matrix(8,0,0,8,63,176.4)" />
</g>
<text x="238" y="355" class="s1">)</text>
<g fill="#FF9900" >
<use xlink:href="#f1_5" transform="matrix(8,0,0,8,71.5,176.4)" />
<use xlink:href="#f1_e" transform="matrix(8,0,0,8,77.9,176.4)" />
<use xlink:href="#f1_5" transform="matrix(8,0,0,8,83,176.4)" />
<use xlink:href="#f1_b" transform="matrix(8,0,0,8,89.4,176.4)" />
<use xlink:href="#f1_8" transform="matrix(8,0,0,8,100.2,176.4)" />
<use xlink:href="#f1_g" transform="matrix(8,0,0,8,106,176.4)" />
<use xlink:href="#f1_8" transform="matrix(8,0,0,8,111,176.4)" />
<use xlink:href="#f1_e" transform="matrix(8,0,0,8,116.8,176.4)" />
<use xlink:href="#f1_f" transform="matrix(8,0,0,8,121.8,176.4)" />
</g>
<text x="63" y="176" dx="0,-.4,0,0,0,0,0,0,0,0" class="s2">Parameters</text>
<path d="M52.3,219.7V163.8c0,-2.5,2,-4.5,4.5,-4.5h77.5c2.5,0,4.6,2,4.6,4.5v55.9c0,2.5,-2.1,4.5,-4.6,4.5H56.8c-2.5,0,-4.5,-2,-4.5,-4.5Z" class="g3"/>
<g fill="#000000" >
<use xlink:href="#f2_1" transform="matrix(10,0,0,10,64.2,205)" />
<use xlink:href="#f3_2" transform="matrix(7,0,0,7,80.7,199.5)" />
</g>
<text x="64" y="205" class="s3">W</text>
<g fill="#000000" >
<use xlink:href="#f4_4" transform="matrix(7,0,0,7,84.2,199.5)" />
</g>
<text x="80" y="199" class="s4">[</text>
<g fill="#000000" >
<use xlink:href="#f3_3" transform="matrix(7,0,0,7,88.1,199.5)" />
</g>
<text x="84" y="199" class="s5">l</text>
<g fill="#000000" >
<use xlink:href="#f2_2" transform="matrix(10,0,0,10,108.2,205)" />
</g>
<text x="88" y="199" class="s4">]</text>
<g fill="#000000" >
<use xlink:href="#f3_2" transform="matrix(7,0,0,7,114.7,199.5)" />
</g>
<text x="108" y="205" class="s3">b</text>
<g fill="#000000" >
<use xlink:href="#f4_4" transform="matrix(7,0,0,7,118.2,199.5)" />
</g>
<text x="114" y="199" class="s4">[</text>
<g fill="#000000" >
<use xlink:href="#f3_3" transform="matrix(7,0,0,7,122.1,199.5)" />
</g>
<text x="118" y="199" class="s5">l</text>
<g fill="#FF3300" >
<use xlink:href="#f1_2" transform="matrix(8,0,0,8,158.3,176.5)" />
</g>
<text x="122" y="199" class="s4">]</text>
<g fill="#FF3300" >
<use xlink:href="#f1_5" transform="matrix(8,0,0,8,167.6,176.5)" />
<use xlink:href="#f1_6" transform="matrix(8,0,0,8,174.1,176.5)" />
<use xlink:href="#f1_9" transform="matrix(8,0,0,8,179.5,176.5)" />
<use xlink:href="#f1_8" transform="matrix(8,0,0,8,186.7,176.5)" />
</g>
<text x="158" y="176" dx="0,0,0,-.4,0" class="s2">Cache</text>
<path d="M147.5,219.7V163.8c0,-2.5,2.1,-4.5,4.6,-4.5h94.8c2.5,0,4.6,2,4.6,4.5v55.9c0,2.5,-2.1,4.5,-4.6,4.5H152.1c-2.5,0,-4.6,-2,-4.6,-4.5Z" class="g4"/>
<g fill="#000000" >
<use xlink:href="#f6_3" transform="matrix(10,0,0,10,154,193)" />
<use xlink:href="#f4_2" transform="matrix(7,0,0,7,166.7,196.6)" />
</g>
<text x="153" y="193" class="s7">∇</text>
<g fill="#000000" >
<use xlink:href="#f7_2" transform="matrix(5,0,0,5,179.7,193.5)" />
</g>
<text x="166" y="196" class="s5">W</text>
<g fill="#000000" >
<use xlink:href="#f8_1" transform="matrix(5,0,0,5,182.8,193.5)" />
</g>
<text x="179" y="193" class="s8">[</text>
<g fill="#000000" >
<use xlink:href="#f7_3" transform="matrix(5,0,0,5,186.5,193.5)" />
</g>
<text x="182" y="193" class="s9">l</text>
<g fill="#000000" >
<use xlink:href="#f6_2" transform="matrix(10,0,0,10,191.1,193)" />
</g>
<text x="186" y="193" class="s8">]</text>
<g fill="#000000" >
<use xlink:href="#f6_3" transform="matrix(10,0,0,10,154,214.7)" />
</g>
<text x="191" y="193" class="s7">L</text>
<g fill="#000000" >
<use xlink:href="#f4_3" transform="matrix(7,0,0,7,166.7,218.2)" />
</g>
<text x="153" y="214" class="s7">∇</text>
<g fill="#000000" >
<use xlink:href="#f7_2" transform="matrix(5,0,0,5,172,215.2)" />
</g>
<text x="166" y="218" class="s5">b</text>
<g fill="#000000" >
<use xlink:href="#f8_1" transform="matrix(5,0,0,5,175.1,215.2)" />
</g>
<text x="172" y="215" class="s8">[</text>
<g fill="#000000" >
<use xlink:href="#f7_3" transform="matrix(5,0,0,5,178.7,215.2)" />
</g>
<text x="175" y="215" class="s9">l</text>
<g fill="#000000" >
<use xlink:href="#f6_2" transform="matrix(10,0,0,10,183.3,214.7)" />
</g>
<text x="178" y="215" class="s8">]</text>
<g fill="#000000" >
<use xlink:href="#f2_4" transform="matrix(10,0,0,10,214.6,191.1)" />
</g>
<text x="183" y="214" class="s7">L</text>
<g fill="#000000" >
<use xlink:href="#f4_4" transform="matrix(7,0,0,7,222,193.4)" />
</g>
<text x="214" y="191" class="s3">o</text>
<g fill="#000000" >
<use xlink:href="#f5_1" transform="matrix(7,0,0,7,225.9,193.4)" />
</g>
<text x="221" y="193" class="s5">l</text>
<g fill="#000000" >
<use xlink:href="#f3_1" transform="matrix(7,0,0,7,235.4,193.4)" />
</g>
<text x="225" y="193" class="s6">-</text>
<g fill="#000000" >
<use xlink:href="#f2_5" transform="matrix(10,0,0,10,214.6,218)" />
</g>
<text x="235" y="193" class="s4">1</text>
<g fill="#000000" >
<use xlink:href="#f3_2" transform="matrix(7,0,0,7,222.3,212.5)" />
</g>
<text x="214" y="218" class="s3">z</text>
<g fill="#000000" >
<use xlink:href="#f4_4" transform="matrix(7,0,0,7,225.8,212.5)" />
</g>
<text x="222" y="212" class="s4">[</text>
<g fill="#000000" >
<use xlink:href="#f3_3" transform="matrix(7,0,0,7,229.7,212.5)" />
</g>
<text x="225" y="212" class="s5">l</text>
<text x="229" y="212" class="s4">]</text>
<path d="M.3,83.5H51" class="g0"/>
<path d="M43.1,79.9l8.4,3.6l-8.4,3.6Z" class="g5"/>
<g fill="#000000" >
<use xlink:href="#f2_4" transform="matrix(10,0,0,10,12.5,74.6)" />
<use xlink:href="#f4_4" transform="matrix(7,0,0,7,19.9,76.8)" />
</g>
<text x="12" y="74" class="s3">o</text>
<g fill="#000000" >
<use xlink:href="#f5_1" transform="matrix(7,0,0,7,23.8,76.8)" />
</g>
<text x="19" y="76" class="s5">l</text>
<g fill="#000000" >
<use xlink:href="#f3_1" transform="matrix(7,0,0,7,33.3,76.8)" />
</g>
<text x="23" y="76" class="s6">-</text>
<text x="33" y="76" class="s4">1</text>
<path d="M1.5,310.9H52.3" class="g0"/>
<path d="M9.5,314.4L1.1,310.9l8.4,-3.6Z" class="g5"/>
<g fill="#000000" >
<use xlink:href="#f2_4" transform="matrix(10,0,0,10,12.5,299.9)" />
<use xlink:href="#f9_2" transform="matrix(5,0,0,5,19.9,289.8)" />
</g>
<text x="12" y="299" class="s3">o</text>
<g fill="#000000" >
<use xlink:href="#f4_4" transform="matrix(7,0,0,7,19.9,304.2)" />
</g>
<text x="19" y="289" class="sa">0</text>
<g fill="#000000" >
<use xlink:href="#f5_1" transform="matrix(7,0,0,7,23.8,304.2)" />
</g>
<text x="19" y="304" class="s5">l</text>
<g fill="#000000" >
<use xlink:href="#f3_1" transform="matrix(7,0,0,7,33.3,304.2)" />
</g>
<text x="23" y="304" class="s6">-</text>
<text x="33" y="304" class="s4">1</text>
<path d="M251.5,83.5h50.7" class="g0"/>
<path d="M294.3,79.9l8.4,3.6l-8.4,3.6Z" class="g5"/>
<g fill="#000000" >
<use xlink:href="#f2_4" transform="matrix(10,0,0,10,271.4,75.8)" />
<use xlink:href="#f4_4" transform="matrix(7,0,0,7,278.8,78.1)" />
</g>
<text x="271" y="75" class="s3">o</text>
<text x="278" y="78" class="s5">l</text>
<path d="M252.7,310.9h50.8" class="g0"/>
<path d="M260.7,314.4l-8.4,-3.5l8.4,-3.6Z" class="g5"/>
<g fill="#000000" >
<use xlink:href="#f2_4" transform="matrix(10,0,0,10,271.3,301.2)" />
<use xlink:href="#f9_2" transform="matrix(5,0,0,5,278.7,291)" />
</g>
<text x="271" y="301" class="s3">o</text>
<g fill="#000000" >
<use xlink:href="#f4_4" transform="matrix(7,0,0,7,278.7,305.5)" />
</g>
<text x="278" y="291" class="sa">0</text>
<text x="278" y="305" class="s5">l</text>
<path d="M95.6,159.3V130.2" class="g0"/>
<path d="M92,138.1l3.6,-8.4l3.5,8.4Z" class="g5"/>
<path d="M95.6,224.2v29.1" class="g0"/>
<path d="M99.1,245.4l-3.5,8.4L92,245.4Z" class="g5"/>
<path d="M199.5,158V129" class="g0"/>
<path d="M203.1,150.1l-3.6,8.4L196,150.1Z" class="g5"/>
<path d="M177.9,225.5v29.1" class="g0"/>
<path d="M174.3,233.4l3.6,-8.4l3.5,8.4Z" class="g5"/>
<path d="M216.8,224.2v29.1" class="g0"/>
<path d="M220.4,245.4l-3.6,8.4l-3.5,-8.4Z" class="g5"/>

</g>
<defs>
<path d="M571,47c155,0,242,89,272,130c55,75,84,167,84,336c0,120,-13,251,-79,341C770,963,665,996,570,996H417c-72,0,-75,-11,-75,-61V108c0,-50,3,-61,75,-61ZM53,0V47H90c118,0,121,17,121,72V924c0,55,-3,72,-121,72H53v47H613c261,0,467,-239,467,-530C1080,226,869,0,613,0Z"
id="f0_5"
transform="scale(0.001,-0.001)"/>

<path d="M533,385c0,60,-15,266,-172,266C309,651,180,613,171,385ZM379,-16C203,-16,43,131,43,336c0,191,140,348,318,348C552,684,634,536,634,385c0,-32,-5,-32,-38,-32H170c0,-55,0,-156,45,-229C251,67,312,21,388,21c15,0,153,0,206,158c3,12,6,21,20,21c8,0,20,-3,20,-18C634,153,565,-16,379,-16Z"
id="f0_7"
transform="scale(0.001,-0.001)"/>

<path d="M49,0V47c102,0,119,0,119,69V526c0,74,-12,85,-119,85v47l215,17V515c43,95,115,160,226,160c89,0,139,-30,161,-56c47,-55,47,-103,47,-234V93C700,47,738,47,817,47L765,2C686,5,646,5,605,5C527,2,646,0,474,0V47c102,0,119,0,119,69V472c0,87,-17,170,-113,170C382,642,273,556,273,397V116C273,47,290,47,393,47L341,2C261,5,222,5,180,5C102,2,222,0,49,0Z"
id="f0_9"
transform="scale(0.001,-0.001)"/>

<path d="M67,-16C50,-16,50,-5,50,20V222c0,27,0,38,20,38c16,0,17,-6,22,-26C121,104,176,17,304,17c119,0,173,61,173,139C477,266,351,290,318,296C208,318,165,327,116,367C75,400,50,443,50,497c0,85,58,187,245,187c23,0,85,0,143,-42c7,4,22,18,26,24c20,18,23,18,31,18c17,0,17,-10,17,-36V493c0,-29,0,-36,-20,-36c-3,0,-17,0,-18,14c-3,47,-11,184,-179,184C163,655,124,593,124,539C124,451,226,431,312,414c64,-12,123,-24,174,-73c18,-19,64,-64,64,-145C550,86,480,-16,304,-16c-32,0,-101,2,-168,65C108,20,108,17,105,14C76,-14,75,-16,67,-16Z"
id="f0_b"
transform="scale(0.001,-0.001)"/>

<path d="M50,0V47c103,0,120,0,120,69V911c0,74,-13,85,-120,85v47l220,17V116C270,47,287,47,390,47L333,2C258,5,220,5,182,5C101,2,220,0,50,0Z"
id="f0_8"
transform="scale(0.001,-0.001)"/>

<path d="M319,17c69,0,179,52,179,197V367C246,358,182,231,182,147C182,70,244,17,319,17ZM309,-16C212,-16,64,21,64,145c0,67,38,147,153,199c96,46,203,50,281,55v56c0,136,-87,196,-162,196C287,651,212,634,171,581c70,-2,78,-52,78,-71c0,-39,-27,-70,-70,-70c-40,0,-71,26,-71,72c0,101,106,172,231,172c74,0,150,-24,209,-84c55,-56,55,-116,55,-180V115c0,-8,7,-77,57,-77c17,0,55,9,55,98v86h38V136C753,12,660,-8,628,-8C556,-8,515,55,509,116C480,44,409,-16,309,-16Z"
id="f0_6"
transform="scale(0.001,-0.001)"/>

<path d="M170,-312c-77,0,-141,55,-141,124c0,45,34,65,64,65c35,0,64,-24,64,-64c0,-24,-12,-58,-59,-64c29,-28,64,-28,72,-28c97,0,140,106,174,190c9,20,30,70,38,89L153,558c-22,53,-51,53,-124,53l46,44c61,-1,102,-1,128,-1c101,3,-26,4,141,4V611c-29,0,-86,0,-86,-40c0,-6,3,-12,9,-27L437,133L591,509c8,18,9,21,9,36c0,39,-24,65,-71,66l33,46c72,-3,100,-3,135,-3c44,1,-35,4,79,4V611c-24,0,-102,-1,-142,-98L365,-138C328,-225,266,-312,170,-312Z"
id="f0_c"
transform="scale(0.001,-0.001)"/>

<path d="M43,0V47c102,0,119,0,119,69V526c0,74,-12,85,-119,85v47l212,17V507c22,66,77,168,188,168c66,0,113,-44,113,-93c0,-49,-38,-67,-66,-67c-33,0,-65,23,-65,66c0,39,30,58,35,59c-3,2,-6,2,-17,2C327,642,263,506,263,354V119c0,-55,3,-72,116,-72h32L350,5H174C102,2,217,0,43,0Z"
id="f0_a"
transform="scale(0.001,-0.001)"/>

<path d="M67,0V50h34c117,0,121,17,121,74V915c0,57,-4,73,-121,73H67v51H946L990,692H943C917,892,888,988,639,988H435c-70,0,-73,-10,-73,-62V545H504c150,0,168,49,168,179h48V316H672c0,132,-18,179,-168,179H362V125c0,-53,0,-75,144,-75h49L486,5H200C197,5,303,0,67,0Z"
id="f1_3"
transform="scale(0.001,-0.001)"/>

<path d="M405,32c67,0,136,28,177,89c43,64,46,148,46,218c0,61,-2,144,-43,208c-35,53,-101,92,-180,92C333,639,269,608,229,555C182,489,182,397,182,339c0,-76,4,-151,43,-214C258,72,322,32,405,32Zm0,-46C209,-14,46,134,46,325c0,191,157,356,359,356C607,681,764,516,764,325C764,134,602,-14,405,-14Z"
id="f1_c"
transform="scale(0.001,-0.001)"/>

<path d="M53,0V50c98,0,117,0,117,69V521c0,75,-13,86,-117,86v50l217,17V513h2c32,86,99,161,199,161c67,0,116,-43,116,-96c0,-45,-32,-69,-69,-69c-31,0,-67,21,-67,69c0,35,15,47,24,53C328,628,281,463,281,348V122c0,-55,3,-72,115,-72h30L327,5H197C113,5,234,0,53,0Z"
id="f1_e"
transform="scale(0.001,-0.001)"/>

<path d="M383,-14c-24,0,-29,13,-38,35L141,559c-17,43,-33,49,-109,49l44,46H211c69,0,-29,4,134,4V608c-27,0,-85,0,-85,-41c0,-6,6,-23,7,-29L419,142L559,519c-29,81,-32,89,-125,89l46,46H591c81,0,-15,4,141,4V608c-37,0,-86,-1,-86,-41c0,-6,0,-11,8,-31L811,119L956,500c3,10,8,19,8,38c0,27,-17,67,-84,70l49,46h156c3,0,-66,4,53,4V608c-90,-1,-116,-69,-130,-104L823,17C817,0,811,-14,787,-14c-26,0,-32,16,-40,35L585,451L423,21C416,2,409,-14,383,-14Z"
id="f1_h"
transform="scale(0.001,-0.001)"/>

<path d="M339,28c61,0,187,39,187,187V367C287,359,193,255,193,154C193,81,260,28,339,28ZM327,-14C222,-14,67,24,67,156c0,50,26,139,161,197c107,44,209,49,298,53v48c0,125,-86,185,-172,185c-10,0,-93,0,-149,-39c33,-7,56,-33,56,-70c0,-41,-29,-72,-72,-72c-39,0,-71,28,-71,74c0,101,113,149,240,149c139,0,284,-76,284,-226V138c0,-17,0,-88,56,-88c32,0,55,25,55,88v84h48V138C801,-1,671,-7,655,-7C588,-7,548,50,541,108C507,47,438,-14,327,-14Z"
id="f1_5"
transform="scale(0.001,-0.001)"/>

<path d="M406,28c72,0,142,36,185,97c23,31,23,37,23,64V515C568,594,495,631,422,631C344,631,275,588,238,532C203,478,189,416,189,327c0,-72,8,-147,49,-206C275,64,336,28,406,28Zm-7,-42C206,-14,53,141,53,328c0,198,170,346,361,346c79,0,151,-31,205,-89V908c0,74,-12,85,-116,85v50l227,17V136C730,61,743,50,846,50V0L614,-14V81C564,28,489,-14,399,-14Z"
id="f1_7"
transform="scale(0.001,-0.001)"/>

<path d="M477,28c123,0,233,126,233,302c0,167,-99,296,-217,296C397,626,321,570,286,509V183c0,-29,0,-30,18,-56C353,50,423,28,477,28ZM53,-295v50c98,0,117,0,117,69V533c0,64,-8,74,-117,74v50l228,17V579c78,79,167,95,226,95C692,674,846,521,846,330C846,134,678,-14,484,-14C435,-14,358,-2,286,75V-176c0,-69,18,-69,116,-69l-66,-46H186c-67,0,42,-4,-133,-4Z"
id="f1_d"
transform="scale(0.001,-0.001)"/>

<path d="M73,-14C53,-14,53,0,53,24V214c0,29,0,41,25,41c18,0,20,-7,26,-27C124,147,168,28,322,28c141,0,181,70,181,129C503,261,385,283,313,296C211,315,176,321,115,367c-5,4,-62,49,-62,125c0,73,48,189,262,189c68,0,113,-16,137,-33c9,-6,12,-6,14,-6c5,0,18,13,21,15c25,24,29,24,37,24c20,0,20,-15,20,-39V498c0,-29,0,-40,-25,-40c-10,0,-21,5,-22,17c-4,43,-11,168,-182,168C170,643,136,579,136,533c0,-61,72,-93,119,-104c6,0,92,-15,104,-18C541,377,585,270,585,197C585,96,518,-14,324,-14c-40,0,-112,3,-180,64C136,43,119,23,112,15C84,-13,83,-14,73,-14Z"
id="f1_f"
transform="scale(0.001,-0.001)"/>

<path d="M84,-16c-3,0,-18,0,-18,15c0,10,53,97,157,200L361,327c29,24,157,134,212,200c-40,0,-57,0,-118,23c-35,12,-64,23,-96,23c-12,0,-101,-2,-130,-72c-3,-9,-6,-17,-20,-17c-13,0,-18,9,-18,17c0,32,70,174,185,174c50,0,76,-30,105,-65c23,-26,42,-49,78,-49c37,0,69,24,115,97c7,14,12,17,23,17c3,0,16,0,16,-15c0,-6,-33,-79,-178,-222C480,383,385,303,385,301C330,254,286,215,203,127c14,4,38,4,41,4c33,0,55,-6,107,-26C383,95,411,86,442,86c50,0,148,29,183,128c4,11,8,20,21,20c12,0,19,-8,19,-16C665,177,576,-16,425,-16c-45,0,-72,24,-98,56C289,84,273,98,238,98C189,98,144,57,108,3C99,-13,96,-16,84,-16Z"
id="f2_5"
transform="scale(0.001,-0.001)"/>

<path d="M208,-381V1146H443v-75H283V-306H443v-75Z"
id="f3_2"
transform="scale(0.001,-0.001)"/>

<path d="M255,-14C182,-14,95,32,95,130c0,15,1,32,6,47L290,932c3,14,6,23,6,34c0,12,0,22,-73,22c-17,0,-38,0,-38,22c0,32,21,33,32,35c38,3,165,15,196,15c18,0,24,-13,24,-21c0,-2,-5,-21,-6,-25L218,165c-4,-17,-9,-46,-9,-63c0,-36,11,-74,52,-74c66,0,95,97,115,174c6,27,9,36,30,36c5,0,25,0,25,-20c0,-6,-22,-96,-54,-152C338,-2,292,-14,255,-14Z"
id="f4_4"
transform="scale(0.001,-0.001)"/>

<path d="M49,-381v75H209V1071H49v75H284V-381Z"
id="f3_3"
transform="scale(0.001,-0.001)"/>

<path d="M136,203c-21,0,-50,0,-50,31c0,30,29,30,52,30h912c23,0,52,0,52,-30c0,-31,-29,-31,-51,-31Zm2,297c-23,0,-52,0,-52,30c0,31,29,31,50,31h915c22,0,51,0,51,-31c0,-30,-29,-30,-52,-30Z"
id="f0_4"
transform="scale(0.001,-0.001)"/>

<path d="M296,-33c-21,0,-23,13,-24,39L203,940c-3,42,-4,56,-81,56c-24,0,-38,0,-38,18c0,29,20,29,79,29c55,-4,109,-4,172,-4c64,4,-63,4,125,4c3,0,21,0,21,-16c0,-31,-17,-31,-32,-31C333,995,333,959,333,941L391,167L778,840L768,958c-3,29,-13,38,-80,38c-22,0,-37,0,-37,17c0,30,20,30,64,30c90,-4,125,-4,186,-4c65,4,-61,4,126,4c6,0,23,-1,23,-16c0,-31,-16,-31,-42,-31C897,995,900,955,901,924L958,167l412,719c13,22,20,34,20,51c0,45,-53,58,-90,59c-9,0,-23,2,-23,18c0,29,20,29,80,29c56,-4,108,-4,146,-4c43,4,-38,4,80,4c12,0,18,-10,18,-16c0,-29,-15,-29,-29,-31c-96,-8,-133,-63,-171,-130L900,-4c-8,-13,-17,-29,-37,-29c-18,0,-21,8,-24,39L782,778L333,-1C319,-23,315,-33,296,-33Z"
id="f2_1"
transform="scale(0.001,-0.001)"/>

<path d="M309,17c70,0,154,52,207,140c58,100,89,260,89,320c0,91,-46,165,-134,165C428,642,341,619,264,501C215,423,176,258,176,183C176,64,243,17,309,17Zm-2,-33C165,-16,63,90,63,241c0,217,204,434,409,434c138,0,245,-99,245,-258C717,194,510,-16,307,-16Z"
id="f2_4"
transform="scale(0.001,-0.001)"/>

<path d="M226,345c-26,0,-61,0,-61,38c0,37,37,37,61,37h911c26,0,61,0,61,-38c0,-37,-37,-37,-61,-37Z"
id="f5_1"
transform="scale(0.001,-0.001)"/>

<path d="M177,0V55h58c153,0,153,20,153,70V904C304,862,203,862,167,862v55c62,0,201,1,299,97c43,0,46,-1,46,-42V125c0,-50,0,-70,153,-70h58L689,2C497,6,449,6,393,6C205,2,449,0,177,0Z"
id="f3_1"
transform="scale(0.001,-0.001)"/>

<path d="M594,-126c-30,0,-30,29,-30,51V351H136c-21,0,-50,0,-50,31c0,31,29,31,50,31H564V840c0,22,0,51,30,51c31,0,31,-29,31,-51V413h426c22,0,51,0,51,-31c0,-31,-29,-31,-51,-31H625V-75c0,-22,0,-51,-31,-51Z"
id="f0_3"
transform="scale(0.001,-0.001)"/>

<path d="M266,17c59,0,130,55,180,157c28,58,78,234,78,324c0,98,-41,144,-96,144C388,642,319,619,244,519C231,503,231,500,222,466L188,325C163,229,163,200,163,171C163,58,214,17,266,17Zm0,-33C153,-16,72,78,72,223c0,54,6,78,24,154L222,875c7,33,21,84,21,95c0,15,-3,26,-76,26c-23,0,-37,0,-37,18c0,28,17,29,29,31c40,3,151,15,186,15c20,0,20,-15,20,-17L252,584c46,47,109,91,179,91C553,675,634,570,634,431C634,211,446,-16,266,-16Z"
id="f2_2"
transform="scale(0.001,-0.001)"/>

<path d="M319,34c45,0,92,27,124,55c34,29,69,67,78,107l73,291c2,6,5,16,5,23c0,8,-21,132,-122,132C413,642,347,581,306,506C264,428,220,248,220,174C220,113,243,34,319,34ZM226,-312c-147,0,-203,30,-203,93c0,61,49,89,82,89c42,0,58,-29,58,-54c0,-26,-16,-66,-62,-79c43,-14,93,-16,122,-16c162,0,214,152,220,165c0,3,18,66,50,201l-1,2C477,72,405,0,315,0C205,0,112,90,112,241c0,220,189,434,363,434c61,0,115,-39,142,-96c6,55,48,66,63,66c26,0,44,-16,44,-42c0,-10,-3,-18,-4,-27L550,-101C527,-193,417,-312,226,-312Z"
id="f2_3"
transform="scale(0.001,-0.001)"/>

<path d="M490,-381c-15,0,-146,99,-238,287C168,78,151,263,151,382c0,128,19,298,97,466c90,194,227,298,242,298c10,0,16,-5,16,-15c0,-5,0,-8,-20,-26C298,914,240,648,240,382c0,-234,49,-522,240,-714c26,-26,26,-29,26,-34c0,-10,-6,-15,-16,-15Z"
id="f0_1"
transform="scale(0.001,-0.001)"/>

<path d="M102,-381c-9,0,-15,6,-15,15c0,5,0,8,20,26c189,193,246,461,246,722c0,319,-87,562,-237,713c-29,28,-29,31,-29,36c0,9,6,15,15,15c16,0,147,-99,239,-287C425,686,442,501,442,382C442,254,423,84,345,-83C255,-277,118,-381,102,-381Z"
id="f0_2"
transform="scale(0.001,-0.001)"/>

<path d="M645,50c156,0,258,107,258,231c0,121,-87,240,-235,240H358V113c0,-52,3,-63,73,-63ZM597,564c175,0,266,117,266,221c0,90,-69,208,-220,208H431c-70,0,-73,-11,-73,-63V564ZM73,0V50h34c118,0,121,17,121,74V920c0,56,-3,73,-121,73H73v50H654c205,0,357,-122,357,-258C1011,681,915,581,749,545C940,524,1057,403,1057,280C1057,134,908,0,697,0Z"
id="f1_1"
transform="scale(0.001,-0.001)"/>

<path d="M405,-14C212,-14,53,136,53,330c0,182,144,351,356,351c144,0,248,-45,248,-140c0,-46,-32,-73,-72,-73c-43,0,-72,30,-72,71c0,19,6,54,49,68c-53,27,-134,27,-148,27C303,634,189,552,189,332C189,105,325,32,420,32c153,0,196,121,206,153c5,15,13,17,23,17c5,0,25,0,25,-19C674,165,620,-14,405,-14Z"
id="f1_6"
transform="scale(0.001,-0.001)"/>

<path d="M53,0V50c98,0,117,0,117,69V908c0,74,-13,85,-117,85v50l228,17V333L501,510c12,9,43,35,43,68c0,9,-6,29,-35,30l67,47c21,-1,96,-1,159,-1c21,0,-63,4,58,4V608C755,607,691,599,590,519L460,416L681,128C736,57,764,50,828,50L775,5H660C591,5,686,0,526,0V50c18,0,47,5,47,31c0,23,-32,63,-54,93c-24,31,-48,61,-71,93c-25,29,-65,83,-69,83L275,267V119C275,50,293,50,391,50L332,5H196C113,5,222,0,53,0Z"
id="f1_a"
transform="scale(0.001,-0.001)"/>

<path d="M681,93l419,840H261L681,93ZM636,-49c-26,0,-31,9,-42,29L79,1010c-3,4,-7,15,-7,21c0,11,1,12,36,12H1163c35,0,36,-1,36,-12c0,-6,-4,-17,-7,-21L677,-20C666,-40,662,-49,636,-49Z"
id="f6_3"
transform="scale(0.001,-0.001)"/>

<path d="M373,-30c-28,0,-29,11,-32,41L238,941c-4,38,-4,47,-76,47c-24,0,-43,0,-43,23c0,26,15,32,77,32c64,-6,114,-6,158,-6c109,6,-44,6,153,6c20,0,25,-15,25,-21c0,-34,-22,-34,-42,-34c-12,0,-107,0,-107,-44c0,-1,4,-17,4,-23L468,173L888,863c-6,48,-10,90,-11,100c-5,15,-12,25,-78,25c-20,0,-40,0,-40,22c0,33,23,33,31,33c35,0,125,-6,160,-6c31,0,71,0,101,2c29,1,66,4,95,4c24,0,26,-19,26,-21c0,-34,-22,-34,-41,-34c-19,0,-107,-1,-107,-44l84,-771l430,707c7,11,23,38,23,55c0,43,-50,52,-84,53c-6,0,-27,2,-27,22c0,33,24,33,82,33c66,-6,120,-6,156,-6c45,6,-36,6,80,6c12,0,21,-10,21,-21c0,-30,-18,-32,-35,-34c-75,-6,-112,-44,-144,-85l-27,-40L1059,2c-11,-18,-20,-32,-46,-32c-23,0,-31,8,-34,39L895,785L419,0C409,-16,399,-30,373,-30Z"
id="f4_2"
transform="scale(0.001,-0.001)"/>

<path d="M264,-381V1146H530v-86H350V-295H530v-86Z"
id="f7_2"
transform="scale(0.001,-0.001)"/>

<path d="M347,-16C252,-16,162,40,162,131c0,22,3,36,8,52L354,917c5,18,7,35,7,47c-17,6,-29,11,-83,11c-21,0,-46,0,-46,26c0,9,5,27,11,35c8,6,11,7,37,9l188,14c4,0,9,0,13,0c19,0,34,-4,34,-25c0,-7,0,-10,-6,-32L298,165c-5,-15,-6,-32,-6,-49c0,-47,18,-81,61,-81c60,0,96,73,121,173c7,24,9,33,36,33c6,0,32,0,32,-21C542,211,519,119,475,57C438,6,397,-16,347,-16Z"
id="f8_1"
transform="scale(0.001,-0.001)"/>

<path d="M84,-381v86H264V1060H84v86H350V-381Z"
id="f7_3"
transform="scale(0.001,-0.001)"/>

<path d="M61,-33c-11,0,-14,6,-14,10c0,7,16,34,57,72c21,20,61,87,72,105c46,92,58,139,85,245c29,114,101,389,223,515c150,151,284,163,333,163c86,0,129,-63,129,-145c0,-63,-14,-78,-42,-99C866,805,825,788,801,788c-2,0,-11,0,-11,11c0,8,8,29,8,57c0,21,-4,126,-109,126c-49,0,-61,-13,-79,-33C515,843,457,660,403,449C383,368,358,270,275,142c20,5,41,6,61,6c77,0,161,-24,203,-36C640,84,717,61,790,61c23,0,24,0,37,18c6,10,15,22,22,46c10,26,13,35,54,61c26,19,63,36,87,36c2,0,11,0,11,-11c0,-5,-9,-43,-40,-84C912,60,787,-33,663,-33c-78,0,-156,23,-234,44C333,38,280,52,203,53C168,17,165,14,139,-1C99,-27,67,-33,61,-33Z"
id="f6_2"
transform="scale(0.001,-0.001)"/>

<path d="M208,58c-2,0,-66,15,-66,40c0,1,0,6,6,24L383,784c8,23,25,70,88,70c45,0,94,-35,94,-90c0,-23,-13,-52,-15,-54L234,84C225,66,222,58,208,58Z"
id="f9_2"
transform="scale(0.001,-0.001)"/>

<path d="M593,277c-57,0,-104,47,-104,105c0,55,44,105,105,105c57,0,104,-47,104,-105C698,327,654,277,593,277Zm1,-365c257,0,471,207,471,470c0,258,-209,471,-472,471C336,853,122,645,122,382C122,124,332,-88,594,-88Zm-1,-38C313,-126,84,101,84,382c0,278,226,509,510,509c280,0,509,-228,509,-509C1103,104,877,-126,593,-126Z"
id="f6_1"
transform="scale(0.001,-0.001)"/>

<path d="M133,63C121,63,73,78,73,96c0,2,6,22,8,25L283,782c7,25,26,72,84,72c47,0,90,-37,90,-84c0,-11,-2,-23,-14,-49L156,89C145,66,144,63,133,63Z"
id="f5_2"
transform="scale(0.001,-0.001)"/>

<path d="M177,0C154,0,151,17,151,21c0,34,14,34,69,34c160,0,165,15,179,72L600,930c7,23,7,31,7,33c0,13,-2,15,-48,15H495C263,978,212,963,124,718C115,689,112,681,92,681c-23,0,-26,16,-26,22c0,7,6,21,7,27l97,271c10,32,13,32,52,32h939c28,0,46,0,46,-22L1166,720c-3,-25,-6,-39,-29,-39c-16,0,-26,8,-26,23l3,17c10,80,10,99,10,124c0,55,-3,99,-71,121c-39,12,-78,12,-171,12c-31,0,-84,0,-92,-2c-34,-3,-37,-7,-47,-52L541,122c-6,-21,-6,-24,-6,-35c0,-18,3,-24,55,-29c29,-1,59,-3,88,-3c48,0,63,0,63,-21C741,0,718,0,706,0C665,0,619,3,578,5C535,6,483,6,440,6C397,6,351,5,309,5C266,5,220,0,177,0Z"
id="f4_1"
transform="scale(0.001,-0.001)"/>

<path d="M327,28c78,0,154,73,191,148c46,88,79,244,79,307c0,104,-52,148,-111,148C431,631,362,597,304,530C275,497,275,493,266,464C223,292,209,240,209,183C209,93,252,28,327,28Zm-2,-42C199,-14,101,83,101,237c0,18,0,38,7,75c4,20,88,354,101,406l35,141c10,35,25,96,25,107c0,12,0,22,-73,22c-19,0,-40,0,-40,22c0,32,21,33,33,35c39,3,165,15,196,15c18,0,24,-13,24,-21c0,-2,-4,-21,-6,-25L298,590c46,39,113,84,192,84c106,0,230,-77,230,-255C720,193,516,-14,325,-14Z"
id="f4_3"
transform="scale(0.001,-0.001)"/>

<path d="M374,28c77,0,168,48,226,139c68,106,86,258,86,294c0,113,-70,170,-153,170C464,631,376,591,310,497C251,409,222,260,222,197C222,76,298,28,374,28Zm-1,-42C206,-14,95,99,95,252c0,209,214,422,440,422c149,0,276,-98,276,-268C811,186,591,-14,373,-14Z"
id="f4_5"
transform="scale(0.001,-0.001)"/>

<path d="M310,339c-24,0,-66,0,-66,43c0,43,42,43,66,43H1344c25,0,66,0,66,-43c0,-43,-41,-43,-66,-43Z"
id="f9_1"
transform="scale(0.001,-0.001)"/>

<path d="M229,0V67h77c162,0,162,17,162,64V895C379,857,280,853,244,853H218v67h26c31,0,201,0,309,98c50,0,55,0,55,-46V131c0,-47,0,-64,162,-64h76L762,6H449C313,6,538,0,229,0Z"
id="f7_1"
transform="scale(0.001,-0.001)"/>

<path d="M593,523c261,0,261,168,261,235c0,69,0,235,-261,235H434c-70,0,-73,-11,-73,-63V523ZM70,0V50h34c118,0,121,17,121,74V920c0,56,-3,73,-121,73H70v50H631c220,0,382,-135,382,-285C1013,597,831,477,643,477H365V124c0,-57,3,-74,121,-74h33L390,5H203C200,5,295,0,70,0Z"
id="f1_4"
transform="scale(0.001,-0.001)"/>

<path d="M63,0V50c97,0,116,0,116,69V521c0,75,-12,86,-116,86v50l221,17V527h2c20,41,90,147,238,147c99,0,186,-31,214,-141c24,45,95,141,235,141c167,0,220,-87,220,-211V119c0,-69,19,-69,116,-69L1244,5H1094C1027,5,1135,0,961,0V50c98,0,116,0,116,69V469c0,84,-17,162,-116,162C865,631,744,556,744,396V119C744,50,762,50,860,50L794,5H645C578,5,686,0,512,0V50c98,0,116,0,116,69V469c0,84,-17,162,-116,162C416,631,295,556,295,396V119C295,50,313,50,411,50L345,5H196C128,5,237,0,63,0Z"
id="f1_b"
transform="scale(0.001,-0.001)"/>

<path d="M570,388c-2,35,-8,251,-187,251C327,639,197,602,183,388ZM403,-14C211,-14,46,138,46,335c0,189,148,346,337,346C599,681,674,519,674,383c0,-35,-9,-35,-43,-35H182c0,-45,0,-143,46,-214C273,64,344,32,413,32c27,0,158,5,213,153c3,9,7,20,23,20c20,0,25,-16,25,-22C674,148,597,-14,403,-14Z"
id="f1_8"
transform="scale(0.001,-0.001)"/>

<path d="M376,-14C306,-14,168,12,168,191V608H31v43c142,4,204,150,206,289h47V658H512V608H284V188C284,163,284,32,387,32c58,0,105,57,105,162v83h47V191C539,76,478,-14,376,-14Z"
id="f1_g"
transform="scale(0.001,-0.001)"/>

<path d="M655,-31C345,-31,90,214,90,523c0,307,257,553,564,553c147,0,247,-75,302,-135l78,113c14,20,16,22,26,22c20,0,20,-16,20,-40V677c0,-29,0,-40,-26,-40c-21,0,-23,11,-24,23C990,923,813,1025,669,1025C524,1025,249,933,249,523C249,98,539,18,669,18c162,0,352,110,364,346c1,15,6,23,23,23c24,0,24,-14,24,-29C1080,171,912,-31,655,-31Z"
id="f1_2"
transform="scale(0.001,-0.001)"/>

<path d="M63,0V50c97,0,116,0,116,69V908c0,74,-12,85,-116,85v50l227,17V539h2c27,49,98,135,232,135c160,0,219,-83,219,-211V119C743,50,761,50,859,50L793,5H643C576,5,684,0,510,0V50c98,0,116,0,116,69V469c0,96,-23,162,-116,162C417,631,295,556,295,396V119C295,50,313,50,411,50L345,5H196C128,5,237,0,63,0Z"
id="f1_9"
transform="scale(0.001,-0.001)"/>


</defs>

<!-- Any embedded fonts defined here -->
<style type="text/css" ><![CDATA[

@font-face {
	font-family: CMMI10_9;
	src: url("fonts/CMMI10_9.woff") format("woff");
}

@font-face {
	font-family: CMMI5_f;
	src: url("fonts/CMMI5_f.woff") format("woff");
}

@font-face {
	font-family: CMMI7_b;
	src: url("fonts/CMMI7_b.woff") format("woff");
}

@font-face {
	font-family: CMR10_7;
	src: url("fonts/CMR10_7.woff") format("woff");
}

@font-face {
	font-family: CMR5_e;
	src: url("fonts/CMR5_e.woff") format("woff");
}

@font-face {
	font-family: CMR7_a;
	src: url("fonts/CMR7_a.woff") format("woff");
}

@font-face {
	font-family: CMR8_8;
	src: url("fonts/CMR8_8.woff") format("woff");
}

@font-face {
	font-family: CMSY10_d;
	src: url("fonts/CMSY10_d.woff") format("woff");
}

@font-face {
	font-family: CMSY5_g;
	src: url("fonts/CMSY5_g.woff") format("woff");
}

@font-face {
	font-family: CMSY7_c;
	src: url("fonts/CMSY7_c.woff") format("woff");
}

]]></style>

</svg>
